<?xml version="1.0" encoding="UTF-8" standalone="no"?>
<!DOCTYPE svg PUBLIC "-//W3C//DTD SVG 1.1//EN" "http://www.w3.org/Graphics/SVG/1.1/DTD/svg11.dtd">
<svg width="100%" height="100%" viewBox="0 0 128 128" version="1.1" xmlns="http://www.w3.org/2000/svg" xmlns:xlink="http://www.w3.org/1999/xlink" xml:space="preserve" xmlns:serif="http://www.serif.com/" style="fill-rule:evenodd;clip-rule:evenodd;stroke-linecap:round;stroke-linejoin:round;stroke-miterlimit:1.5;">
    <g transform="matrix(1.358908,0,0,1.358908,-29.657938,-29.213333)">
        <path d="M116.018,52.138L116.018,85.05C116.018,94.133 108.644,101.507 99.562,101.507L38.281,101.507C29.199,101.507 21.825,94.133 21.825,85.05L21.825,52.138C21.825,43.056 29.199,35.682 38.281,35.682L99.562,35.682C108.644,35.682 116.018,43.056 116.018,52.138ZM105.334,82.602L81.522,82.602L81.522,89.615L105.334,89.615L105.334,82.602ZM50.329,47.078C38.453,47.078 28.812,56.719 28.812,68.594C28.812,80.469 38.453,90.111 50.329,90.111C62.204,90.111 71.845,80.469 71.845,68.594C71.845,56.719 62.204,47.078 50.329,47.078ZM105.334,65.088L81.522,65.088L81.522,72.101L105.334,72.101L105.334,65.088ZM105.334,47.547L81.522,47.547L81.522,54.56L105.334,54.56L105.334,47.547Z" style="fill:rgb(195,142,241);"/>
    </g>
    <g transform="matrix(0.571172,0,0,0.991298,1.140297,1.0558)">
        <rect x="58.616" y="45.434" width="14.406" height="36.126" style="fill:rgb(195,142,241);stroke:rgb(195,142,241);stroke-width:6.87px;"/>
    </g>
</svg>
